<svg width="924" height="132" viewBox="0 0 924 132" fill="none" xmlns="http://www.w3.org/2000/svg">
<g clip-path="url(#clip0_24_84)">
<rect width="924" height="132" fill="white"/>
<path fill-rule="evenodd" clip-rule="evenodd" d="M34.68 126.022C26.6333 122.055 20.06 116.899 14.96 110.552C9.86 104.092 6.06333 97.1788 3.57 89.8121C1.19 82.3321 0 75.0788 0 68.0521V64.3121C0 56.6055 1.24667 49.0121 3.74 41.5321C6.23333 33.9388 10.03 27.0821 15.13 20.9621C20.3433 14.8421 26.86 9.96878 34.68 6.34211C42.6133 2.60211 51.9633 0.732117 62.73 0.732117C73.95 0.732117 83.8667 2.82878 92.48 7.02211C101.093 11.2154 107.95 17.0521 113.05 24.5321C118.263 31.8988 121.323 40.5688 122.23 50.5421H94.18C93.3867 45.5555 91.5733 41.3055 88.74 37.7921C85.9067 34.2788 82.2233 31.5588 77.69 29.6321C73.27 27.7055 68.2833 26.7421 62.73 26.7421C57.1767 26.7421 52.2467 27.7055 47.94 29.6321C43.6333 31.5588 40.0067 34.2788 37.06 37.7921C34.2267 41.3055 32.0167 45.4988 30.43 50.3721C28.9567 55.1321 28.22 60.4588 28.22 66.3521C28.22 72.1321 28.9567 77.4588 30.43 82.3321C32.0167 87.0921 34.2833 91.2855 37.23 94.9121C40.29 98.4255 44.03 101.145 48.45 103.072C52.87 104.885 57.9133 105.792 63.58 105.792C72.1933 105.792 79.4467 103.695 85.34 99.5021C91.3467 95.3088 94.9733 89.5288 96.22 82.1621H124.1C123.08 91.2288 120.02 99.5588 114.92 107.152C109.933 114.632 103.077 120.639 94.35 125.172C85.7367 129.592 75.48 131.802 63.58 131.802C52.36 131.802 42.7267 129.875 34.68 126.022ZM159.597 128.572V3.45211H208.387C218.7 3.45211 227.653 5.03878 235.247 8.21212C242.84 11.2721 248.677 15.8621 252.757 21.9821C256.837 28.1021 258.877 35.8088 258.877 45.1021V47.8221C258.877 57.0021 256.78 64.6521 252.587 70.7721C248.59 76.656 242.908 81.1261 235.54 84.1826L267.207 128.572H234.907L207.796 88.7921H187.477V128.572H159.597ZM187.477 66.8621V27.0821H210.597C214.677 27.0821 218.19 27.9321 221.137 29.6321C224.197 31.2188 226.52 33.5421 228.107 36.6021C229.807 39.5488 230.657 43.0054 230.657 46.9721C230.657 50.9388 229.807 54.4521 228.107 57.5121C226.52 60.4588 224.197 62.7821 221.137 64.4821C218.19 66.0688 214.677 66.8621 210.597 66.8621H187.477ZM358.782 131.802C347.562 131.802 337.759 129.875 329.372 126.022C321.099 122.055 314.242 116.899 308.802 110.552C303.362 104.092 299.282 97.1221 296.562 89.6421C293.956 82.1621 292.652 74.9654 292.652 68.0521V64.3121C292.652 56.6055 294.012 49.0121 296.732 41.5321C299.566 33.9388 303.759 27.0821 309.312 20.9621C314.866 14.8421 321.779 9.96878 330.052 6.34211C338.326 2.60211 347.902 0.732117 358.782 0.732117C369.662 0.732117 379.239 2.60211 387.512 6.34211C395.786 9.96878 402.699 14.8421 408.252 20.9621C413.806 27.0821 417.999 33.9388 420.832 41.5321C423.666 49.0121 425.082 56.6055 425.082 64.3121V68.0521C425.082 74.9654 423.722 82.1621 421.002 89.6421C418.282 97.1221 414.202 104.092 408.762 110.552C403.322 116.899 396.409 122.055 388.022 126.022C379.749 129.875 370.002 131.802 358.782 131.802ZM463.206 128.572V4.47212H508.936L555.686 105.962H558.066V4.47212H584.246V128.572H538.176L491.426 27.0821H489.046V128.572H463.206ZM629.462 128.572V4.47212H657.342V128.572H629.462ZM784.167 128.572L741.328 70.6021H730.448V128.572H702.568V4.47212H730.448V62.606L776.177 4.47212H808.138L765.815 58.1836L817.828 128.572H784.167ZM847.4 128.572V4.47212H875.28V104.092H923.9V128.572H847.4ZM352.66 40.1045C348.706 41.1517 345.234 43.0472 342.339 45.5238L342.331 45.538C340.121 47.4208 336.784 47.1688 334.902 44.9592C333.019 42.7496 333.263 39.4274 335.48 37.5304C339.551 34.0392 344.427 31.3937 349.919 29.922C369.615 24.6446 389.85 36.3275 395.128 56.023L396.175 59.9764L400.393 52.67C401.851 50.1442 405.07 49.2817 407.596 50.74C410.122 52.1983 410.984 55.4171 409.526 57.943L398.98 76.2089C397.522 78.7347 394.303 79.5972 391.777 78.1389L391.72 78.106L373.526 67.6013C371 66.143 370.137 62.9242 371.596 60.3984C373.054 57.8725 376.273 57.01 378.799 58.4683L385.977 62.6125L384.953 58.7492C381.184 44.6809 366.728 36.3349 352.66 40.1045ZM323.132 52.4916C324.018 52.2421 324.926 52.2522 325.763 52.4501C326.018 52.5024 326.257 52.5831 326.502 52.6864C326.747 52.7897 326.983 52.9073 327.211 53.0391L345.42 63.552C347.946 65.0103 348.809 68.2291 347.35 70.7549C345.892 73.2808 342.673 74.1432 340.147 72.685L332.955 68.5325L333.987 72.3816L333.993 72.4041C337.762 86.4724 352.218 94.8184 366.286 91.0488C370.24 90.0016 373.712 88.1061 376.607 85.6295C378.817 83.7468 382.153 83.9987 384.036 86.2083C385.919 88.4179 385.675 91.7402 383.457 93.6372C379.395 97.1141 374.505 99.7514 369.012 101.223C349.339 106.494 329.104 94.8116 323.818 75.1303L322.749 71.1829L318.539 78.475C317.08 81.0009 313.861 81.8633 311.336 80.4051C308.81 78.9468 307.947 75.7279 309.406 73.2021L319.918 54.9932C320.059 54.7506 320.213 54.5163 320.396 54.2984C320.531 54.1294 320.681 53.9686 320.823 53.822C321.451 53.1953 322.232 52.7328 323.132 52.4916Z" fill="black"/>
</g>
<defs>
<clipPath id="clip0_24_84">
<rect width="924" height="132" fill="white"/>
</clipPath>
</defs>
</svg>
