<svg width="1000" height="1000" viewBox="0 0 1000 1000" fill="none" xmlns="http://www.w3.org/2000/svg">
<rect width="1000" height="1000" fill="white"/>
<path d="M499.8 842.296C435.743 842.296 379.775 831.296 331.894 809.297C284.661 786.651 245.515 757.211 214.457 720.977C183.4 684.096 160.106 644.303 144.577 601.599C129.696 558.895 122.255 517.808 122.255 478.339V456.987C122.255 412.988 130.019 369.637 145.548 326.933C161.724 283.581 185.664 244.436 217.369 209.496C249.074 174.556 288.543 146.733 335.776 126.028C383.01 104.676 437.684 94 499.8 94C561.915 94 616.59 104.676 663.823 126.028C711.057 146.733 750.526 174.556 782.231 209.496C813.935 244.436 837.876 283.581 854.052 326.933C870.227 369.637 878.315 412.988 878.315 456.987V478.339C878.315 517.808 870.551 558.895 855.022 601.599C839.493 644.303 816.2 684.096 785.142 720.977C754.085 757.211 714.615 786.651 666.735 809.297C619.501 831.296 563.856 842.296 499.8 842.296ZM499.8 693.802C533.446 693.802 563.533 687.978 590.061 676.332C617.237 664.685 640.206 648.509 658.97 627.804C678.381 607.099 692.94 583.158 702.645 555.983C712.351 528.808 717.203 499.691 717.203 468.633C717.203 435.635 712.027 405.547 701.675 378.372C691.969 350.549 677.411 326.609 658 306.551C639.236 285.846 616.59 269.994 590.061 258.994C563.533 247.994 533.446 242.495 499.8 242.495C466.154 242.495 436.067 247.994 409.538 258.994C383.01 269.994 360.04 285.846 340.629 306.551C321.865 326.609 307.63 350.549 297.925 378.372C288.219 405.547 283.366 435.635 283.366 468.633C283.366 499.691 288.219 528.808 297.925 555.983C307.63 583.158 321.865 607.099 340.629 627.804C360.04 648.509 383.01 664.685 409.538 676.332C436.067 687.978 466.154 693.802 499.8 693.802Z" fill="#89B83A" fill-opacity="0.5"/>
<path d="M465.545 870.842C401.488 870.842 345.52 859.842 297.639 837.843C250.406 815.197 211.26 785.756 180.202 749.522C149.145 712.641 125.852 672.849 110.323 630.145C95.4409 587.44 88 546.353 88 506.884V485.532C88 441.534 95.7645 398.182 111.293 355.478C127.469 312.127 151.409 272.981 183.114 238.041C214.819 203.101 254.288 175.279 301.522 154.574C348.755 133.222 403.43 122.546 465.545 122.546C527.66 122.546 582.335 133.222 629.568 154.574C676.802 175.279 716.271 203.101 747.976 238.041C779.68 272.981 803.621 312.127 819.797 355.478C835.973 398.182 844.06 441.534 844.06 485.532V506.884C844.06 546.353 836.296 587.44 820.767 630.145C805.238 672.849 781.945 712.641 750.887 749.522C719.83 785.756 680.361 815.197 632.48 837.843C585.246 859.842 529.601 870.842 465.545 870.842ZM465.545 722.347C499.191 722.347 529.278 716.524 555.806 704.877C582.982 693.23 605.952 677.055 624.716 656.349C644.127 635.644 658.685 611.704 668.39 584.529C678.096 557.353 682.949 528.237 682.949 497.179C682.949 464.18 677.773 434.093 667.42 406.917C657.714 379.095 643.156 355.155 623.745 335.097C604.981 314.391 582.335 298.539 555.806 287.539C529.278 276.54 499.191 271.04 465.545 271.04C431.899 271.04 401.812 276.54 375.284 287.539C348.755 298.539 325.785 314.391 306.374 335.097C287.61 355.155 273.375 379.095 263.67 406.917C253.964 434.093 249.112 464.18 249.112 497.179C249.112 528.237 253.964 557.353 263.67 584.529C273.375 611.704 287.61 635.644 306.374 656.349C325.785 677.055 348.755 693.23 375.284 704.877C401.812 716.524 431.899 722.347 465.545 722.347Z" fill="#89B83A" fill-opacity="0.5"/>
<path d="M534.054 876.551C469.998 876.551 414.029 865.551 366.149 843.552C318.915 820.906 279.77 791.466 248.712 755.232C217.654 718.351 194.361 678.558 178.832 635.854C163.95 593.149 156.51 552.063 156.51 512.594V491.241C156.51 447.243 164.274 403.892 179.803 361.187C195.979 317.836 219.919 278.69 251.624 243.751C283.328 208.811 322.797 180.988 370.031 160.283C417.265 138.931 471.939 128.255 534.054 128.255C596.17 128.255 650.844 138.931 698.078 160.283C745.312 180.988 784.781 208.811 816.485 243.751C848.19 278.69 872.13 317.836 888.306 361.187C904.482 403.892 912.57 447.243 912.57 491.241V512.594C912.57 552.063 904.806 593.149 889.277 635.854C873.748 678.558 850.455 718.351 819.397 755.232C788.339 791.466 748.87 820.906 700.989 843.552C653.756 865.551 598.111 876.551 534.054 876.551ZM534.054 728.056C567.7 728.056 597.787 722.233 624.316 710.586C651.491 698.94 674.461 682.764 693.225 662.059C712.636 641.354 727.194 617.413 736.9 590.238C746.605 563.062 751.458 533.946 751.458 502.888C751.458 469.889 746.282 439.802 735.93 412.627C726.224 384.804 711.666 360.864 692.255 340.806C673.491 320.101 650.844 304.248 624.316 293.249C597.787 282.249 567.7 276.749 534.054 276.749C500.409 276.749 470.322 282.249 443.793 293.249C417.265 304.248 394.295 320.101 374.884 340.806C356.12 360.864 341.885 384.804 332.179 412.627C322.474 439.802 317.621 469.889 317.621 502.888C317.621 533.946 322.474 563.062 332.179 590.238C341.885 617.413 356.12 641.354 374.884 662.059C394.295 682.764 417.265 698.94 443.793 710.586C470.322 722.233 500.409 728.056 534.054 728.056Z" fill="#89B83A" fill-opacity="0.5"/>
<path d="M499.8 905.096C435.743 905.096 379.775 894.097 331.894 872.098C284.661 849.451 245.515 820.011 214.457 783.777C183.4 746.896 160.106 707.104 144.577 664.399C129.696 621.695 122.255 580.608 122.255 541.139V519.787C122.255 475.789 130.019 432.437 145.548 389.733C161.724 346.382 185.664 307.236 217.369 272.296C249.074 237.356 288.543 209.534 335.776 188.829C383.01 167.476 437.684 156.8 499.8 156.8C561.915 156.8 616.59 167.476 663.823 188.829C711.057 209.534 750.526 237.356 782.231 272.296C813.935 307.236 837.876 346.382 854.052 389.733C870.227 432.437 878.315 475.789 878.315 519.787V541.139C878.315 580.608 870.551 621.695 855.022 664.399C839.493 707.104 816.2 746.896 785.142 783.777C754.085 820.011 714.615 849.451 666.735 872.098C619.501 894.097 563.856 905.096 499.8 905.096ZM499.8 756.602C533.446 756.602 563.533 750.779 590.061 739.132C617.237 727.485 640.206 711.309 658.97 690.604C678.381 669.899 692.94 645.959 702.645 618.783C712.351 591.608 717.203 562.491 717.203 531.434C717.203 498.435 712.027 468.348 701.675 441.172C691.969 413.35 677.411 389.409 658 369.351C639.236 348.646 616.59 332.794 590.061 321.794C563.533 310.795 533.446 305.295 499.8 305.295C466.154 305.295 436.067 310.795 409.538 321.794C383.01 332.794 360.04 348.646 340.629 369.351C321.865 389.409 307.63 413.35 297.925 441.172C288.219 468.348 283.366 498.435 283.366 531.434C283.366 562.491 288.219 591.608 297.925 618.783C307.63 645.959 321.865 669.899 340.629 690.604C360.04 711.309 383.01 727.485 409.538 739.132C436.067 750.779 466.154 756.602 499.8 756.602Z" fill="#89B83A" fill-opacity="0.5"/>
<path d="M500.828 871.755C436.772 871.755 380.803 860.756 332.923 838.756C285.689 816.11 246.543 786.67 215.486 750.436C184.428 713.555 161.135 673.763 145.606 631.058C130.724 588.354 123.283 547.267 123.283 507.798V486.446C123.283 442.448 131.048 399.096 146.577 356.392C162.752 313.04 186.693 273.895 218.397 238.955C250.102 204.015 289.571 176.193 336.805 155.487C384.038 134.135 438.713 123.459 500.828 123.459C562.944 123.459 617.618 134.135 664.852 155.487C712.085 176.193 751.554 204.015 783.259 238.955C814.964 273.895 838.904 313.04 855.08 356.392C871.256 399.096 879.344 442.448 879.344 486.446V507.798C879.344 547.267 871.579 588.354 856.05 631.058C840.522 673.763 817.228 713.555 786.171 750.436C755.113 786.67 715.644 816.11 667.763 838.756C620.53 860.756 564.885 871.755 500.828 871.755ZM500.828 723.261C534.474 723.261 564.561 717.437 591.09 705.791C618.265 694.144 641.235 677.968 659.999 657.263C679.41 636.558 693.968 612.618 703.674 585.442C713.379 558.267 718.232 529.15 718.232 498.093C718.232 465.094 713.056 435.007 702.703 407.831C692.998 380.009 678.439 356.068 659.028 336.01C640.264 315.305 617.618 299.453 591.09 288.453C564.561 277.454 534.474 271.954 500.828 271.954C467.182 271.954 437.095 277.454 410.567 288.453C384.038 299.453 361.069 315.305 341.658 336.01C322.894 356.068 308.659 380.009 298.953 407.831C289.248 435.007 284.395 465.094 284.395 498.093C284.395 529.15 289.248 558.267 298.953 585.442C308.659 612.618 322.894 636.558 341.658 657.263C361.069 677.968 384.038 694.144 410.567 705.791C437.095 717.437 467.182 723.261 500.828 723.261Z" fill="black"/>
<path d="M755.968 493.639C755.968 632.374 643.501 744.841 504.766 744.841C366.031 744.841 253.565 632.374 253.565 493.639C253.565 354.904 366.031 242.438 504.766 242.438C643.501 242.438 755.968 354.904 755.968 493.639Z" fill="black"/>
<path d="M406.949 379.181C423.477 365.042 443.303 354.22 465.873 348.241C546.191 326.72 628.721 374.369 650.242 454.686L656.083 476.743L615.103 453.083C600.683 444.757 582.306 449.681 573.981 464.102C565.655 478.522 570.579 496.899 585 505.224L688.875 565.197L689.201 565.385C703.621 573.711 721.998 568.787 730.323 554.366L790.531 450.083C798.857 435.663 793.933 417.286 779.512 408.961C765.092 400.635 746.715 405.559 738.39 419.98L714.307 461.693L708.328 439.122C678.198 326.678 562.673 259.979 450.228 290.108C418.872 298.51 391.033 313.614 367.794 333.545C355.132 344.376 353.741 363.343 364.49 375.958C375.239 388.573 394.287 390.011 406.902 379.262L406.949 379.181ZM312.316 418.724C307.537 417.594 302.356 417.536 297.297 418.961C292.157 420.338 287.699 422.979 284.113 426.557C283.304 427.393 282.448 428.311 281.674 429.276C280.63 430.52 279.748 431.858 278.949 433.243L218.929 537.2C210.604 551.62 215.528 569.997 229.948 578.323C244.368 586.648 262.745 581.724 271.071 567.304L295.107 525.672L301.214 548.208C331.391 660.571 446.916 727.27 559.232 697.175C590.588 688.773 618.508 673.717 641.701 653.867C654.363 643.036 655.754 624.069 645.005 611.454C634.256 598.839 615.208 597.401 602.593 608.15C586.065 622.289 566.239 633.111 543.668 639.089C463.351 660.61 380.821 612.962 359.3 532.644L359.265 532.516L353.377 510.541L394.438 534.247C408.859 542.573 427.235 537.649 435.561 523.229C443.887 508.808 438.963 490.432 424.542 482.106L320.585 422.087C319.282 421.334 317.931 420.663 316.534 420.073C315.136 419.484 313.773 419.022 312.316 418.724Z" fill="white"/>
</svg>
