<svg width="924" height="132" viewBox="0 0 924 132" fill="none" xmlns="http://www.w3.org/2000/svg">
<path fill-rule="evenodd" clip-rule="evenodd" d="M34.68 126.022C26.6333 122.056 20.06 116.899 14.96 110.552C9.86 104.092 6.06333 97.1788 3.57 89.8122C1.19 82.3322 0 75.0788 0 68.0522V64.3122C0 56.6055 1.24667 49.0122 3.74 41.5322C6.23333 33.9388 10.03 27.0822 15.13 20.9622C20.3433 14.8422 26.86 9.96884 34.68 6.34217C42.6133 2.60218 51.9633 0.732178 62.73 0.732178C73.95 0.732178 83.8667 2.82884 92.48 7.02217C101.093 11.2155 107.95 17.0522 113.05 24.5322C118.263 31.8988 121.323 40.5688 122.23 50.5422H94.18C93.3867 45.5555 91.5733 41.3055 88.74 37.7922C85.9067 34.2788 82.2233 31.5588 77.69 29.6322C73.27 27.7055 68.2833 26.7422 62.73 26.7422C57.1767 26.7422 52.2467 27.7055 47.94 29.6322C43.6333 31.5588 40.0067 34.2788 37.06 37.7922C34.2267 41.3055 32.0167 45.4988 30.43 50.3722C28.9567 55.1322 28.22 60.4588 28.22 66.3522C28.22 72.1322 28.9567 77.4588 30.43 82.3322C32.0167 87.0922 34.2833 91.2855 37.23 94.9122C40.29 98.4255 44.03 101.146 48.45 103.072C52.87 104.886 57.9133 105.792 63.58 105.792C72.1933 105.792 79.4467 103.696 85.34 99.5022C91.3467 95.3088 94.9733 89.5288 96.22 82.1622H124.1C123.08 91.2288 120.02 99.5589 114.92 107.152C109.933 114.632 103.077 120.639 94.35 125.172C85.7367 129.592 75.48 131.802 63.58 131.802C52.36 131.802 42.7267 129.876 34.68 126.022ZM159.597 128.572V3.45217H208.387C218.7 3.45217 227.653 5.03884 235.247 8.21218C242.84 11.2722 248.677 15.8622 252.757 21.9822C256.837 28.1022 258.877 35.8088 258.877 45.1022V47.8222C258.877 57.0022 256.78 64.6522 252.587 70.7722C248.59 76.656 242.908 81.1262 235.54 84.1826L267.207 128.572H234.907L207.796 88.7922H187.477V128.572H159.597ZM187.477 66.8622V27.0822H210.597C214.677 27.0822 218.19 27.9322 221.137 29.6322C224.197 31.2188 226.52 33.5422 228.107 36.6022C229.807 39.5488 230.657 43.0055 230.657 46.9722C230.657 50.9388 229.807 54.4522 228.107 57.5122C226.52 60.4588 224.197 62.7822 221.137 64.4822C218.19 66.0688 214.677 66.8622 210.597 66.8622H187.477ZM358.782 131.802C347.562 131.802 337.759 129.876 329.372 126.022C321.099 122.056 314.242 116.899 308.802 110.552C303.362 104.092 299.282 97.1222 296.562 89.6422C293.956 82.1622 292.652 74.9655 292.652 68.0522V64.3122C292.652 56.6055 294.012 49.0122 296.732 41.5322C299.566 33.9388 303.759 27.0822 309.312 20.9622C314.866 14.8422 321.779 9.96884 330.052 6.34217C338.326 2.60218 347.902 0.732178 358.782 0.732178C369.662 0.732178 379.239 2.60218 387.512 6.34217C395.786 9.96884 402.699 14.8422 408.252 20.9622C413.806 27.0822 417.999 33.9388 420.832 41.5322C423.666 49.0122 425.082 56.6055 425.082 64.3122V68.0522C425.082 74.9655 423.722 82.1622 421.002 89.6422C418.282 97.1222 414.202 104.092 408.762 110.552C403.322 116.899 396.409 122.056 388.022 126.022C379.749 129.876 370.002 131.802 358.782 131.802ZM463.206 128.572V4.47218H508.936L555.686 105.962H558.066V4.47218H584.246V128.572H538.176L491.426 27.0822H489.046V128.572H463.206ZM629.462 128.572V4.47218H657.342V128.572H629.462ZM784.167 128.572L741.328 70.6022H730.448V128.572H702.568V4.47218H730.448V62.6061L776.177 4.47218H808.138L765.815 58.1836L817.828 128.572H784.167ZM847.4 128.572V4.47218H875.28V104.092H923.9V128.572H847.4ZM352.66 40.1045C348.706 41.1517 345.234 43.0473 342.339 45.5238L342.331 45.5381C340.121 47.4208 336.784 47.1689 334.902 44.9593C333.019 42.7497 333.263 39.4274 335.48 37.5304C339.551 34.0392 344.427 31.3937 349.919 29.9221C369.615 24.6447 389.85 36.3275 395.128 56.0231L396.175 59.9764L400.393 52.6701C401.851 50.1442 405.07 49.2817 407.596 50.74C410.122 52.1983 410.984 55.4171 409.526 57.943L398.98 76.2089C397.522 78.7348 394.303 79.5973 391.777 78.139L391.72 78.106L373.526 67.6013C371 66.1431 370.137 62.9242 371.596 60.3984C373.054 57.8726 376.273 57.0101 378.799 58.4684L385.977 62.6126L384.953 58.7492C381.184 44.681 366.728 36.3349 352.66 40.1045ZM323.132 52.4916C324.018 52.2421 324.926 52.2523 325.763 52.4502C326.018 52.5024 326.257 52.5832 326.502 52.6865C326.747 52.7897 326.983 52.9073 327.211 53.0391L345.42 63.552C347.946 65.0103 348.809 68.2291 347.35 70.755C345.892 73.2808 342.673 74.1433 340.147 72.685L332.955 68.5326L333.987 72.3816L333.993 72.4041C337.762 86.4724 352.218 94.8185 366.286 91.0489C370.24 90.0016 373.712 88.1061 376.607 85.6296C378.817 83.7468 382.153 83.9987 384.036 86.2084C385.919 88.418 385.675 91.7402 383.457 93.6372C379.395 97.1141 374.505 99.7514 369.012 101.223C349.339 106.494 329.104 94.8116 323.818 75.1303L322.749 71.1829L318.539 78.4751C317.08 81.0009 313.861 81.8634 311.336 80.4051C308.81 78.9468 307.947 75.728 309.406 73.2021L319.918 54.9933C320.059 54.7507 320.213 54.5163 320.396 54.2984C320.531 54.1294 320.681 53.9686 320.823 53.8221C321.451 53.1954 322.232 52.7328 323.132 52.4916Z" fill="white"/>
</svg>
